<?xml version="1.0" encoding="UTF-8"?>
<svg id="Layer_1" xmlns="http://www.w3.org/2000/svg" xmlns:xlink="http://www.w3.org/1999/xlink" version="1.1" viewBox="0 0 115 20" height="20">
  <!-- Generator: Adobe Illustrator 30.0.0, SVG Export Plug-In . SVG Version: 2.1.1 Build 123)  -->
  <defs>
    <style>
      .st0 {
        fill: none;
      }

      .st1 {
        fill: #292929;
      }

      .st2 {
        fill: url(#linear-gradient);
      }

      .st3 {
        isolation: isolate;
      }

      .st3, .st4 {
        font-family: Verdana,Geneva,DejaVu Sans,sans-serif;
        font-size: 11px;
      }

      .st3, .st5 {
        fill: #fff;
      }

      .st4 {
        fill: #010101;
      }

      .st6 {
        fill: #555;
      }

      .st7 {
        letter-spacing: .106401em;
      }

      .st8 {
        clip-path: url(#clippath);
      }
    </style>
    <clipPath id="clippath">
      <rect class="st0" width="115" height="20" rx="3" ry="3"/>
    </clipPath>
    <linearGradient id="linear-gradient" x1="-244.375" y1="387.75" x2="-244.375" y2="386.75" gradientTransform="translate(28405 7755) scale(116 -20)" gradientUnits="userSpaceOnUse">
      <stop offset="0" stop-color="#bbb" stop-opacity=".1"/>
      <stop offset="1" stop-color="#000" stop-opacity=".1"/>
    </linearGradient>
  </defs>
  <g class="st8">
    <g>
      <rect class="st6" width="101.239064" height="20"/>
      <rect class="st1" x="95" y="0" width="20" height="20" rx="3" ry="3"/>
      <rect class="st2" width="115" height="20"/>
    </g>
  </g>
  <g text-rendering="geometricPrecision">
    <text class="st4" transform="translate(6.359375 15)"><tspan x="0" y="0">interactive</tspan><tspan class="st7" x="58.313965" y="0"> </tspan><tspan x="63.351562" y="0">site</tspan></text>
    <text class="st3" transform="translate(6.359375 14)"><tspan x="0" y="0">interactive</tspan><tspan class="st7" x="58.313965" y="0"> </tspan><tspan x="63.351562" y="0">site</tspan></text>
  </g>
  <g>
    <path class="st5" d="M100.155333,12.42227c-.43008-.249901-.768697-.587374-1.016157-1.01242-.24746-.42474-.37119-.892504-.37119-1.402375,0-.514753.119992-.987094.359976-1.417326.239984-.429927.573643-.769842,1.00113-1.019743.42741-.249901.913558-.375004,1.458519-.375004.404907,0,.777317.0714,1.117308.213896.339914.142495.634822.358527.884875.6484l-.772359.735057c-.170033-.180026-.349983-.313673-.539927-.401245-.190096-.087267-.419934-.131206-.689898-.131206-.344949,0-.646188.076282-.903641.228847-.257529.152565-.456245.360968-.596147.626126-.140054.264852-.210005.562354-.210005.892199,0,.33015.069951.624905.210005.884875.139902.25997.341211.465017.603622.614836.262488.150124.568685.225186.918668.225186.234873,0,.456092-.042413.66358-.127544.207412-.084826.383624-.209929.528713-.375004l.794862.697526c-.219998.264852-.497514.476002-.832393.633449-.334956.157447-.727352.23617-1.177266.23617-.524975,0-1.002427-.124798-1.432278-.374699Z"/>
    <path class="st5" d="M104.834569,12.515945c-.299942-.192537-.533671-.44854-.701111-.768621-.167592-.319776-.251274-.664877-.251274-1.034999,0-.369817.083682-.714613.251274-1.034694.16744-.319776.401169-.576084.701111-.768621s.639856-.288652,1.019819-.288652c.284991,0,.542368.063772.772435.191011.229839.127544.382403.299027.457389.513838h.052482v-.599885h1.027371v3.974311h-1.027371v-.584933h-.052482c-.074986.205047-.22755.371343-.457389.498582-.230068.127544-.487444.191316-.772435.191316-.379962,0-.719877-.096421-1.019819-.288652ZM106.578079,11.683552c.162405-.097641.289873-.231288.382403-.401245.092454-.169957.138758-.360053.138758-.569982,0-.214811-.046303-.407348-.138758-.577305-.092531-.169957-.219998-.303604-.382403-.401245-.162558-.097336-.346246-.146157-.551216-.146157-.310012,0-.567464.106185-.772359.318555-.205047.212675-.307418.478748-.307418.798829,0,.209929.046151.401245.138681.573643.092454.172398.221219.307265.386218.404907.164999.097336.349831.146157.554878.146157.204971,0,.388659-.048821.551216-.146157Z"/>
    <path class="st5" d="M110.391205,12.699633h-1.05735v-.877247l.007476-4.529342h1.05735l-.007476,5.406589Z"/>
  </g>
</svg>